<svg xmlns="http://www.w3.org/2000/svg" fill="currentColor" width="16" height="16" viewBox="0 0 16 16" class="h-auto">
    <path d="M9.71 6.7a.75.75 0 1 0 1.11 1l2.93-3.2a.75.75 0 0 0 0-1L10.82.3a.75.75 0 1 0-1.1 1l1.78 1.95H4.6A3.75 3.75 0 0 0 .85 7v.07a.75.75 0 1 0 1.5 0V7A2.25 2.25 0 0 1 4.6 4.75h6.9L9.72 6.69ZM6.3 9.3a.75.75 0 0 0-1.1-1l-2.94 3.2a.75.75 0 0 0 0 1l2.93 3.2a.75.75 0 1 0 1.1-1l-1.77-1.95h6.9A3.75 3.75 0 0 0 15.14 9v-.07a.75.75 0 1 0-1.5 0V9a2.25 2.25 0 0 1-2.25 2.25H4.5L6.3 9.31Z"/>
</svg>