<svg xmlns="http://www.w3.org/2000/svg" fill="currentColor" width="16" height="16" viewBox="0 0 16 16" class="h-auto">
    <path fill-rule="evenodd" d="M7.97 0a2 2 0 0 0-.9.21L1.62 2.95A2 2 0 0 0 .5 4.74v6.56a2 2 0 0 0 1.05 1.77l4.78 2.57a3 3 0 0 0 1.43.36h.48a3 3 0 0 0 1.43-.36l4.78-2.57a2 2 0 0 0 1.05-1.76V4.74a2 2 0 0 0-1.1-1.8L8.91.22A2 2 0 0 0 8.03 0h-.06ZM14 11.3V5.63L8.75 8.45v5.96c.07-.02.14-.05.2-.09l4.79-2.57a.5.5 0 0 0 .26-.44ZM8.25 1.56l5.26 2.63-2.06 1.11-5.38-2.9 1.68-.84a.5.5 0 0 1 .22-.05h.06a.5.5 0 0 1 .22.05Zm-3.5 1.5L2.5 4.18 8 7.15l2.18-1.18-5.42-2.92Zm2.5 5.4L2 5.62v5.68a.5.5 0 0 0 .26.44l4.79 2.58.2.1V8.44Z" clip-rule="evenodd"/>
</svg>