<svg xmlns="http://www.w3.org/2000/svg" fill="currentColor" width="16" height="16" viewBox="0 0 16 16" class="h-auto">
    <path d="M1 2a.75.75 0 0 1 .75-.75h7.5a.75.75 0 0 1 0 1.5h-7.5A.75.75 0 0 1 1 2Zm0 8a.75.75 0 0 1 .75-.75h5a.75.75 0 0 1 0 1.5h-5A.75.75 0 0 1 1 10Zm2.25-4.75a.75.75 0 0 0 0 1.5h7.5a.75.75 0 1 0 0-1.5h-7.5ZM2.5 14a.75.75 0 0 1 .75-.75h4a.75.75 0 1 1 0 1.5h-4A.75.75 0 0 1 2.5 14Z"/>
    <path fill-rule="evenodd" d="M16 11.5a3.5 3.5 0 1 1-7 0 3.5 3.5 0 0 1 7 0Zm-1.5 0a2 2 0 1 1-4 0 2 2 0 0 1 4 0Z" clip-rule="evenodd"/>
</svg>