<svg xmlns="http://www.w3.org/2000/svg" fill="currentColor" width="16" height="16" viewBox="0 0 16 16" class="h-auto">
    <path fill-rule="evenodd" d="M3 16a2.5 2.5 0 0 1-2.5-2.5V5.55a2 2 0 0 1 .86-1.65L6.5.36A2 2 0 0 1 7.62 0h.75a2 2 0 0 1 1.14.36l5.13 3.54a2 2 0 0 1 .86 1.65v7.95A2.5 2.5 0 0 1 13 16H3Zm2-1.5H3a1 1 0 0 1-1-1V5.55a.5.5 0 0 1 .21-.41l5.13-3.55a.5.5 0 0 1 .29-.09h.75c.1 0 .2.03.28.09l5.13 3.55a.5.5 0 0 1 .21.4v7.96a1 1 0 0 1-1 1h-2V8a1 1 0 0 0-1-1H6a1 1 0 0 0-1 1v6.5Zm1.5 0h3v-6h-3v6Z" clip-rule="evenodd"/>
</svg>