<svg xmlns="http://www.w3.org/2000/svg" fill="currentColor" width="16" height="16" viewBox="0 0 16 16" class="h-auto">
    <path fill-rule="evenodd" d="M8 10a2 2 0 1 0 0-4 2 2 0 0 0 0 4Zm0 1.5a3.5 3.5 0 1 0 0-7 3.5 3.5 0 0 0 0 7Z" clip-rule="evenodd"/>
    <path fill-rule="evenodd" d="M7.41 14.5h1.18l.05-.83a1.75 1.75 0 0 1 1.08-1.51 1.75 1.75 0 0 1 1.83.3l.63.55.83-.83-.55-.63a1.75 1.75 0 0 1-.3-1.83 1.75 1.75 0 0 1 1.5-1.08l.84-.05V7.41l-.83-.05a1.75 1.75 0 0 1-1.51-1.08 1.75 1.75 0 0 1 .3-1.83l.55-.63-.83-.83-.63.55a1.75 1.75 0 0 1-1.83.3 1.75 1.75 0 0 1-1.08-1.5L8.6 1.5H7.41l-.05.83a1.75 1.75 0 0 1-1.08 1.51 1.75 1.75 0 0 1-1.83-.3l-.63-.55-.83.83.55.63a1.75 1.75 0 0 1-1.2 2.9l-.84.06v1.18l.83.05a1.75 1.75 0 0 1 1.51 1.08 1.75 1.75 0 0 1-.3 1.83l-.55.63.83.84.63-.56a1.75 1.75 0 0 1 1.83-.3 1.75 1.75 0 0 1 1.08 1.5l.05.84Zm-2.9-.12.19-.14.74-.65a.25.25 0 0 1 .26-.04.25.25 0 0 1 .16.21l.06.99a1.34 1.34 0 0 0 .07.35c.18.53.68.9 1.26.9h1.5a1.33 1.33 0 0 0 1.33-1.25l.06-.99a.25.25 0 0 1 .16-.22.25.25 0 0 1 .26.05l.74.65a1.34 1.34 0 0 0 .3.2c.5.24 1.12.16 1.53-.26l1.05-1.05a1.33 1.33 0 0 0 .06-1.83l-.65-.74a.25.25 0 0 1-.04-.26.25.25 0 0 1 .21-.16l.99-.06a1.34 1.34 0 0 0 .35-.07c.53-.18.9-.68.9-1.26v-1.5a1.33 1.33 0 0 0-1.25-1.33l-.99-.06a.25.25 0 0 1-.22-.16.25.25 0 0 1 .05-.26l.65-.74a1.34 1.34 0 0 0 .2-.3c.24-.5.16-1.12-.26-1.53l-1.05-1.06a1.33 1.33 0 0 0-1.83-.05l-.74.65a.25.25 0 0 1-.26.04.25.25 0 0 1-.16-.21l-.06-1A1.34 1.34 0 0 0 10 .9 1.33 1.33 0 0 0 8.75 0h-1.5a1.33 1.33 0 0 0-1.33 1.25l-.06.99a.25.25 0 0 1-.16.21.25.25 0 0 1-.26-.04l-.74-.65a1.34 1.34 0 0 0-.3-.2 1.33 1.33 0 0 0-1.53.26L1.81 2.87a1.33 1.33 0 0 0-.05 1.83l.65.74c.07.07.08.17.05.26a.25.25 0 0 1-.22.16l-.99.06A1.34 1.34 0 0 0 .9 6c-.53.18-.9.68-.9 1.26v1.5a1.33 1.33 0 0 0 1.25 1.33l.99.06c.1 0 .18.07.21.16a.25.25 0 0 1-.04.26l-.65.74a1.34 1.34 0 0 0-.2.3c-.24.5-.16 1.12.26 1.53l1.05 1.05a1.33 1.33 0 0 0 1.64.2Z" clip-rule="evenodd"/>
</svg>