<svg xmlns="http://www.w3.org/2000/svg" fill="currentColor" width="16" height="16" viewBox="0 0 16 16" class="h-auto">
    <path fill-rule="evenodd" d="M5 13H2.8a1.8 1.8 0 0 1-1.63-2.53l.48-1.05a11.58 11.58 0 0 0 1-4.02l.04-.41A5.34 5.34 0 0 1 8 0a5.34 5.34 0 0 1 5.32 4.99l.03.4a11.6 11.6 0 0 0 1.01 4.03l.48 1.05A1.79 1.79 0 0 1 13.2 13H11a3 3 0 0 1-3 3 3 3 0 0 1-3-3Zm-2.48-1.91L3 10.04A13.09 13.09 0 0 0 4.14 5.5l.03-.41A3.84 3.84 0 0 1 8 1.5a3.84 3.84 0 0 1 3.83 3.59l.03.4c.1 1.58.49 3.12 1.14 4.55l.47 1.05a.3.3 0 0 1-.26.41H2.79a.3.3 0 0 1-.26-.41ZM6.5 13a1.5 1.5 0 1 0 3 0h-3Z" clip-rule="evenodd"/>
</svg>