<svg xmlns="http://www.w3.org/2000/svg" fill="currentColor" width="16" height="16" viewBox="0 0 16 16" class="h-auto">
    <path d="M0 2.25A2.25 2.25 0 0 1 2.25 0h7.5A2.25 2.25 0 0 1 12 2.25v6a.75.75 0 1 1-1.5 0v-6a.75.75 0 0 0-.75-.75h-7.5a.75.75 0 0 0-.75.75V13.1a.2.2 0 0 0 .28.17l.89-.44a.75.75 0 1 1 .67 1.34l-.9.44A1.7 1.7 0 0 1 0 13.11V2.24Z"/>
    <path d="M5 10.7a.7.7 0 0 1 .7-.7h4.6a.7.7 0 0 1 0 1.4H7.36l.14.24.28.49a9 9 0 0 0 .86 1.26c.57.68 1.24 1.11 2.36 1.11a3.4 3.4 0 0 0 2.6-1.04c.58-.63.9-1.5.9-2.46 0-.99-.42-1.57-.8-2a.75.75 0 0 1 1.1-1c.52.57 1.2 1.49 1.2 3a5.1 5.1 0 0 1-1.3 3.48A4.9 4.9 0 0 1 11 16c-1.63 0-2.7-.7-3.51-1.64-.39-.46-.71-.97-1-1.47l-.09-.15v2.56a.7.7 0 1 1-1.4 0v-4.6ZM2.95 4.25a.75.75 0 0 1 .75-.75h2a.75.75 0 0 1 0 1.5h-2a.75.75 0 0 1-.75-.75ZM3.7 6.5a.75.75 0 1 0 0 1.5h4.6a.75.75 0 0 0 0-1.5H3.7Z"/>
</svg>