<svg xmlns="http://www.w3.org/2000/svg" fill="currentColor" width="16" height="16" viewBox="0 0 16 16" class="h-auto">
    <path fill-rule="evenodd" d="M6.89 4.92c-.24.25-.39.63-.39 1.13a.75.75 0 1 1-1.5 0c0-.8.25-1.57.79-2.15C6.33 3.32 7.1 3 8 3c.9 0 1.67.32 2.21.9.54.57.79 1.34.79 2.15 0 1.23-.87 1.92-1.44 2.33l-.25.18a4.4 4.4 0 0 0-.45.34.64.64 0 0 0-.11.12v.48a.75.75 0 0 1-1.5 0V9c0-.56.33-.96.6-1.2.2-.18.45-.37.67-.52l.17-.12c.55-.4.81-.7.81-1.12 0-.49-.15-.87-.39-1.12A1.45 1.45 0 0 0 8 4.5c-.53 0-.89.18-1.11.42Z" clip-rule="evenodd"/>
    <path d="M9 12a1 1 0 0 1-2 0 1 1 0 0 1 2 0Z"/>
    <path fill-rule="evenodd" d="M8 14.5A6.5 6.5 0 1 0 1.5 8c0 1.02.18 1.6.6 2.4.32.59.41 1.31.18 2l-.66 1.98 1.98-.66a2.54 2.54 0 0 1 2 .18c.8.42 1.38.6 2.4.6ZM8 16a8 8 0 1 0-8-8c0 1.29.25 2.12.78 3.1.14.26.17.56.08.83l-.8 2.42a1 1 0 0 0-.06.31V15a1 1 0 0 0 1 1h.34a1 1 0 0 0 .31-.05l2.42-.8c.27-.1.57-.07.82.07 1 .53 1.82.78 3.11.78Z" clip-rule="evenodd"/>
</svg>