<svg xmlns="http://www.w3.org/2000/svg" fill="currentColor" width="16" height="16" viewBox="0 0 16 16" class="h-auto">
    <g fill-rule="evenodd" clip-rule="evenodd">
        <path d="M0 3.88c0-.8.55-1.47 1.3-1.68h.02L10.55.21c.15-.04.3-.05.45-.05.93 0 1.75.73 1.75 1.74v2.6h.75A2.5 2.5 0 0 1 16 7v6.5a2.5 2.5 0 0 1-2.5 2.5h-11A2.5 2.5 0 0 1 0 13.5V3.88Zm10.91-2.21c.2-.05.34.09.34.23v2.6H2.5c-.36 0-.7.07-1 .2v-.82c0-.09.06-.19.18-.22l9.22-1.99h.01ZM1.5 7v6.5a1 1 0 0 0 1 1h11a1 1 0 0 0 1-1V7a1 1 0 0 0-1-1h-11a1 1 0 0 0-1 1Z"/>
        <path d="M10.9 1.67 1.68 3.66c-.12.03-.18.13-.18.22v.83c.32-.14.66-.21 1-.21h8.75V1.9c0-.14-.14-.28-.34-.23m-9.59.53L10.55.21c.15-.04.3-.05.45-.05.93 0 1.75.73 1.75 1.74v2.6h.75A2.5 2.5 0 0 1 16 7v6.5a2.5 2.5 0 0 1-2.5 2.5h-11A2.5 2.5 0 0 1 0 13.5V3.88c0-.8.55-1.47 1.3-1.68h.02Zm.18 11.3V7a1 1 0 0 1 1-1h11a1 1 0 0 1 1 1v6.5a1 1 0 0 1-1 1h-11a1 1 0 0 1-1-1ZM13 10.25c0 .69-.56 1.25-1.25 1.25s-1.25-.55-1.25-1.25a1.25 1.25 0 0 1 2.5 0Z"/>
    </g>
</svg>